<mxfile host="app.diagrams.net" modified="2023-09-02T06:10:40.621Z" agent="Mozilla/5.0 (Windows NT 10.0; Win64; x64) AppleWebKit/537.36 (KHTML, like Gecko) Chrome/116.0.0.0 Safari/537.36" etag="oJ1xPV1HBJtAhvmv0net" version="21.6.9" type="github">
  <diagram name="Page-1" id="dUeGmHBjYkYLpgM7HRPr">
    <mxGraphModel dx="1100" dy="610" grid="1" gridSize="10" guides="1" tooltips="1" connect="1" arrows="1" fold="1" page="1" pageScale="1" pageWidth="850" pageHeight="1100" math="0" shadow="0">
      <root>
        <mxCell id="0" />
        <mxCell id="1" parent="0" />
        <mxCell id="3Q9VjhLFoMXuuxBaP2ft-168" value="" style="rounded=0;whiteSpace=wrap;html=1;fillColor=#d5e8d4;gradientColor=#97d077;strokeColor=#82b366;" parent="1" vertex="1">
          <mxGeometry x="17" y="1580" width="820" height="330" as="geometry" />
        </mxCell>
        <mxCell id="3Q9VjhLFoMXuuxBaP2ft-135" value="" style="rounded=0;whiteSpace=wrap;html=1;fillColor=#dae8fc;gradientColor=#7ea6e0;strokeColor=#6c8ebf;" parent="1" vertex="1">
          <mxGeometry x="18" y="1120" width="810" height="420" as="geometry" />
        </mxCell>
        <mxCell id="3Q9VjhLFoMXuuxBaP2ft-73" value="" style="rounded=0;whiteSpace=wrap;html=1;fillColor=#fff2cc;gradientColor=#ffd966;strokeColor=#d6b656;" parent="1" vertex="1">
          <mxGeometry x="15" y="520" width="810" height="500" as="geometry" />
        </mxCell>
        <mxCell id="3Q9VjhLFoMXuuxBaP2ft-2" value="Continente" style="swimlane;fontStyle=1;align=center;verticalAlign=top;childLayout=stackLayout;horizontal=1;startSize=26;horizontalStack=0;resizeParent=1;resizeParentMax=0;resizeLast=0;collapsible=1;marginBottom=0;whiteSpace=wrap;html=1;" parent="1" vertex="1">
          <mxGeometry x="25" y="750" width="230" height="190" as="geometry" />
        </mxCell>
        <mxCell id="3Q9VjhLFoMXuuxBaP2ft-32" value="- id: Long" style="text;strokeColor=none;fillColor=none;align=left;verticalAlign=top;spacingLeft=4;spacingRight=4;overflow=hidden;rotatable=0;points=[[0,0.5],[1,0.5]];portConstraint=eastwest;whiteSpace=wrap;html=1;" parent="3Q9VjhLFoMXuuxBaP2ft-2" vertex="1">
          <mxGeometry y="26" width="230" height="26" as="geometry" />
        </mxCell>
        <mxCell id="3Q9VjhLFoMXuuxBaP2ft-33" value="- nombre: String" style="text;strokeColor=none;fillColor=none;align=left;verticalAlign=top;spacingLeft=4;spacingRight=4;overflow=hidden;rotatable=0;points=[[0,0.5],[1,0.5]];portConstraint=eastwest;whiteSpace=wrap;html=1;" parent="3Q9VjhLFoMXuuxBaP2ft-2" vertex="1">
          <mxGeometry y="52" width="230" height="26" as="geometry" />
        </mxCell>
        <mxCell id="3Q9VjhLFoMXuuxBaP2ft-3" value="- estado: Boolean" style="text;strokeColor=none;fillColor=none;align=left;verticalAlign=top;spacingLeft=4;spacingRight=4;overflow=hidden;rotatable=0;points=[[0,0.5],[1,0.5]];portConstraint=eastwest;whiteSpace=wrap;html=1;" parent="3Q9VjhLFoMXuuxBaP2ft-2" vertex="1">
          <mxGeometry y="78" width="230" height="26" as="geometry" />
        </mxCell>
        <mxCell id="3Q9VjhLFoMXuuxBaP2ft-5" value="- fechaCreacion: LocalDateTime" style="text;strokeColor=none;fillColor=none;align=left;verticalAlign=top;spacingLeft=4;spacingRight=4;overflow=hidden;rotatable=0;points=[[0,0.5],[1,0.5]];portConstraint=eastwest;whiteSpace=wrap;html=1;" parent="3Q9VjhLFoMXuuxBaP2ft-2" vertex="1">
          <mxGeometry y="104" width="230" height="26" as="geometry" />
        </mxCell>
        <mxCell id="3Q9VjhLFoMXuuxBaP2ft-6" value="- fechaModificacion: LocalDateTime" style="text;strokeColor=none;fillColor=none;align=left;verticalAlign=top;spacingLeft=4;spacingRight=4;overflow=hidden;rotatable=0;points=[[0,0.5],[1,0.5]];portConstraint=eastwest;whiteSpace=wrap;html=1;" parent="3Q9VjhLFoMXuuxBaP2ft-2" vertex="1">
          <mxGeometry y="130" width="230" height="26" as="geometry" />
        </mxCell>
        <mxCell id="3Q9VjhLFoMXuuxBaP2ft-7" value="- fechaEliminacion: LocalDateTime" style="text;strokeColor=none;fillColor=none;align=left;verticalAlign=top;spacingLeft=4;spacingRight=4;overflow=hidden;rotatable=0;points=[[0,0.5],[1,0.5]];portConstraint=eastwest;whiteSpace=wrap;html=1;" parent="3Q9VjhLFoMXuuxBaP2ft-2" vertex="1">
          <mxGeometry y="156" width="230" height="26" as="geometry" />
        </mxCell>
        <mxCell id="3Q9VjhLFoMXuuxBaP2ft-4" value="" style="line;strokeWidth=1;fillColor=none;align=left;verticalAlign=middle;spacingTop=-1;spacingLeft=3;spacingRight=3;rotatable=0;labelPosition=right;points=[];portConstraint=eastwest;strokeColor=inherit;" parent="3Q9VjhLFoMXuuxBaP2ft-2" vertex="1">
          <mxGeometry y="182" width="230" height="8" as="geometry" />
        </mxCell>
        <mxCell id="3Q9VjhLFoMXuuxBaP2ft-8" value="Auditoria" style="swimlane;fontStyle=1;align=center;verticalAlign=top;childLayout=stackLayout;horizontal=1;startSize=26;horizontalStack=0;resizeParent=1;resizeParentMax=0;resizeLast=0;collapsible=1;marginBottom=0;whiteSpace=wrap;html=1;" parent="1" vertex="1">
          <mxGeometry x="427" y="1191" width="240" height="138" as="geometry" />
        </mxCell>
        <mxCell id="3Q9VjhLFoMXuuxBaP2ft-9" value="- estado: Boolean" style="text;strokeColor=none;fillColor=none;align=left;verticalAlign=top;spacingLeft=4;spacingRight=4;overflow=hidden;rotatable=0;points=[[0,0.5],[1,0.5]];portConstraint=eastwest;whiteSpace=wrap;html=1;" parent="3Q9VjhLFoMXuuxBaP2ft-8" vertex="1">
          <mxGeometry y="26" width="240" height="26" as="geometry" />
        </mxCell>
        <mxCell id="3Q9VjhLFoMXuuxBaP2ft-10" value="- fechaCreacion: LocalDateTime" style="text;strokeColor=none;fillColor=none;align=left;verticalAlign=top;spacingLeft=4;spacingRight=4;overflow=hidden;rotatable=0;points=[[0,0.5],[1,0.5]];portConstraint=eastwest;whiteSpace=wrap;html=1;" parent="3Q9VjhLFoMXuuxBaP2ft-8" vertex="1">
          <mxGeometry y="52" width="240" height="26" as="geometry" />
        </mxCell>
        <mxCell id="3Q9VjhLFoMXuuxBaP2ft-11" value="- fechaModificacion: LocalDateTime" style="text;strokeColor=none;fillColor=none;align=left;verticalAlign=top;spacingLeft=4;spacingRight=4;overflow=hidden;rotatable=0;points=[[0,0.5],[1,0.5]];portConstraint=eastwest;whiteSpace=wrap;html=1;" parent="3Q9VjhLFoMXuuxBaP2ft-8" vertex="1">
          <mxGeometry y="78" width="240" height="26" as="geometry" />
        </mxCell>
        <mxCell id="3Q9VjhLFoMXuuxBaP2ft-12" value="- fechaEliminacion: LocalDateTime" style="text;strokeColor=none;fillColor=none;align=left;verticalAlign=top;spacingLeft=4;spacingRight=4;overflow=hidden;rotatable=0;points=[[0,0.5],[1,0.5]];portConstraint=eastwest;whiteSpace=wrap;html=1;" parent="3Q9VjhLFoMXuuxBaP2ft-8" vertex="1">
          <mxGeometry y="104" width="240" height="26" as="geometry" />
        </mxCell>
        <mxCell id="3Q9VjhLFoMXuuxBaP2ft-13" value="" style="line;strokeWidth=1;fillColor=none;align=left;verticalAlign=middle;spacingTop=-1;spacingLeft=3;spacingRight=3;rotatable=0;labelPosition=right;points=[];portConstraint=eastwest;strokeColor=inherit;" parent="3Q9VjhLFoMXuuxBaP2ft-8" vertex="1">
          <mxGeometry y="130" width="240" height="8" as="geometry" />
        </mxCell>
        <mxCell id="3Q9VjhLFoMXuuxBaP2ft-36" value="Pais" style="swimlane;fontStyle=1;align=center;verticalAlign=top;childLayout=stackLayout;horizontal=1;startSize=26;horizontalStack=0;resizeParent=1;resizeParentMax=0;resizeLast=0;collapsible=1;marginBottom=0;whiteSpace=wrap;html=1;" parent="1" vertex="1">
          <mxGeometry x="305" y="560" width="230" height="216" as="geometry" />
        </mxCell>
        <mxCell id="3Q9VjhLFoMXuuxBaP2ft-37" value="- id: Long" style="text;strokeColor=none;fillColor=none;align=left;verticalAlign=top;spacingLeft=4;spacingRight=4;overflow=hidden;rotatable=0;points=[[0,0.5],[1,0.5]];portConstraint=eastwest;whiteSpace=wrap;html=1;" parent="3Q9VjhLFoMXuuxBaP2ft-36" vertex="1">
          <mxGeometry y="26" width="230" height="26" as="geometry" />
        </mxCell>
        <mxCell id="3Q9VjhLFoMXuuxBaP2ft-38" value="- nombre: String" style="text;strokeColor=none;fillColor=none;align=left;verticalAlign=top;spacingLeft=4;spacingRight=4;overflow=hidden;rotatable=0;points=[[0,0.5],[1,0.5]];portConstraint=eastwest;whiteSpace=wrap;html=1;" parent="3Q9VjhLFoMXuuxBaP2ft-36" vertex="1">
          <mxGeometry y="52" width="230" height="26" as="geometry" />
        </mxCell>
        <mxCell id="3Q9VjhLFoMXuuxBaP2ft-52" value="- continenteId: Continente" style="text;strokeColor=none;fillColor=none;align=left;verticalAlign=top;spacingLeft=4;spacingRight=4;overflow=hidden;rotatable=0;points=[[0,0.5],[1,0.5]];portConstraint=eastwest;whiteSpace=wrap;html=1;" parent="3Q9VjhLFoMXuuxBaP2ft-36" vertex="1">
          <mxGeometry y="78" width="230" height="26" as="geometry" />
        </mxCell>
        <mxCell id="3Q9VjhLFoMXuuxBaP2ft-39" value="- estado: Boolean" style="text;strokeColor=none;fillColor=none;align=left;verticalAlign=top;spacingLeft=4;spacingRight=4;overflow=hidden;rotatable=0;points=[[0,0.5],[1,0.5]];portConstraint=eastwest;whiteSpace=wrap;html=1;" parent="3Q9VjhLFoMXuuxBaP2ft-36" vertex="1">
          <mxGeometry y="104" width="230" height="26" as="geometry" />
        </mxCell>
        <mxCell id="3Q9VjhLFoMXuuxBaP2ft-40" value="- fechaCreacion: LocalDateTime" style="text;strokeColor=none;fillColor=none;align=left;verticalAlign=top;spacingLeft=4;spacingRight=4;overflow=hidden;rotatable=0;points=[[0,0.5],[1,0.5]];portConstraint=eastwest;whiteSpace=wrap;html=1;" parent="3Q9VjhLFoMXuuxBaP2ft-36" vertex="1">
          <mxGeometry y="130" width="230" height="26" as="geometry" />
        </mxCell>
        <mxCell id="3Q9VjhLFoMXuuxBaP2ft-41" value="- fechaModificacion: LocalDateTime" style="text;strokeColor=none;fillColor=none;align=left;verticalAlign=top;spacingLeft=4;spacingRight=4;overflow=hidden;rotatable=0;points=[[0,0.5],[1,0.5]];portConstraint=eastwest;whiteSpace=wrap;html=1;" parent="3Q9VjhLFoMXuuxBaP2ft-36" vertex="1">
          <mxGeometry y="156" width="230" height="26" as="geometry" />
        </mxCell>
        <mxCell id="3Q9VjhLFoMXuuxBaP2ft-42" value="- fechaEliminacion: LocalDateTime" style="text;strokeColor=none;fillColor=none;align=left;verticalAlign=top;spacingLeft=4;spacingRight=4;overflow=hidden;rotatable=0;points=[[0,0.5],[1,0.5]];portConstraint=eastwest;whiteSpace=wrap;html=1;" parent="3Q9VjhLFoMXuuxBaP2ft-36" vertex="1">
          <mxGeometry y="182" width="230" height="26" as="geometry" />
        </mxCell>
        <mxCell id="3Q9VjhLFoMXuuxBaP2ft-43" value="" style="line;strokeWidth=1;fillColor=none;align=left;verticalAlign=middle;spacingTop=-1;spacingLeft=3;spacingRight=3;rotatable=0;labelPosition=right;points=[];portConstraint=eastwest;strokeColor=inherit;" parent="3Q9VjhLFoMXuuxBaP2ft-36" vertex="1">
          <mxGeometry y="208" width="230" height="8" as="geometry" />
        </mxCell>
        <mxCell id="3Q9VjhLFoMXuuxBaP2ft-54" value="Estado" style="swimlane;fontStyle=1;align=center;verticalAlign=top;childLayout=stackLayout;horizontal=1;startSize=26;horizontalStack=0;resizeParent=1;resizeParentMax=0;resizeLast=0;collapsible=1;marginBottom=0;whiteSpace=wrap;html=1;" parent="1" vertex="1">
          <mxGeometry x="585" y="560" width="230" height="216" as="geometry" />
        </mxCell>
        <mxCell id="3Q9VjhLFoMXuuxBaP2ft-55" value="- id: Long" style="text;strokeColor=none;fillColor=none;align=left;verticalAlign=top;spacingLeft=4;spacingRight=4;overflow=hidden;rotatable=0;points=[[0,0.5],[1,0.5]];portConstraint=eastwest;whiteSpace=wrap;html=1;" parent="3Q9VjhLFoMXuuxBaP2ft-54" vertex="1">
          <mxGeometry y="26" width="230" height="26" as="geometry" />
        </mxCell>
        <mxCell id="3Q9VjhLFoMXuuxBaP2ft-56" value="- nombre: String" style="text;strokeColor=none;fillColor=none;align=left;verticalAlign=top;spacingLeft=4;spacingRight=4;overflow=hidden;rotatable=0;points=[[0,0.5],[1,0.5]];portConstraint=eastwest;whiteSpace=wrap;html=1;" parent="3Q9VjhLFoMXuuxBaP2ft-54" vertex="1">
          <mxGeometry y="52" width="230" height="26" as="geometry" />
        </mxCell>
        <mxCell id="3Q9VjhLFoMXuuxBaP2ft-57" value="- paisId: Pais" style="text;strokeColor=none;fillColor=none;align=left;verticalAlign=top;spacingLeft=4;spacingRight=4;overflow=hidden;rotatable=0;points=[[0,0.5],[1,0.5]];portConstraint=eastwest;whiteSpace=wrap;html=1;" parent="3Q9VjhLFoMXuuxBaP2ft-54" vertex="1">
          <mxGeometry y="78" width="230" height="26" as="geometry" />
        </mxCell>
        <mxCell id="3Q9VjhLFoMXuuxBaP2ft-58" value="- estado: Boolean" style="text;strokeColor=none;fillColor=none;align=left;verticalAlign=top;spacingLeft=4;spacingRight=4;overflow=hidden;rotatable=0;points=[[0,0.5],[1,0.5]];portConstraint=eastwest;whiteSpace=wrap;html=1;" parent="3Q9VjhLFoMXuuxBaP2ft-54" vertex="1">
          <mxGeometry y="104" width="230" height="26" as="geometry" />
        </mxCell>
        <mxCell id="3Q9VjhLFoMXuuxBaP2ft-59" value="- fechaCreacion: LocalDateTime" style="text;strokeColor=none;fillColor=none;align=left;verticalAlign=top;spacingLeft=4;spacingRight=4;overflow=hidden;rotatable=0;points=[[0,0.5],[1,0.5]];portConstraint=eastwest;whiteSpace=wrap;html=1;" parent="3Q9VjhLFoMXuuxBaP2ft-54" vertex="1">
          <mxGeometry y="130" width="230" height="26" as="geometry" />
        </mxCell>
        <mxCell id="3Q9VjhLFoMXuuxBaP2ft-60" value="- fechaModificacion: LocalDateTime" style="text;strokeColor=none;fillColor=none;align=left;verticalAlign=top;spacingLeft=4;spacingRight=4;overflow=hidden;rotatable=0;points=[[0,0.5],[1,0.5]];portConstraint=eastwest;whiteSpace=wrap;html=1;" parent="3Q9VjhLFoMXuuxBaP2ft-54" vertex="1">
          <mxGeometry y="156" width="230" height="26" as="geometry" />
        </mxCell>
        <mxCell id="3Q9VjhLFoMXuuxBaP2ft-61" value="- fechaEliminacion: LocalDateTime" style="text;strokeColor=none;fillColor=none;align=left;verticalAlign=top;spacingLeft=4;spacingRight=4;overflow=hidden;rotatable=0;points=[[0,0.5],[1,0.5]];portConstraint=eastwest;whiteSpace=wrap;html=1;" parent="3Q9VjhLFoMXuuxBaP2ft-54" vertex="1">
          <mxGeometry y="182" width="230" height="26" as="geometry" />
        </mxCell>
        <mxCell id="3Q9VjhLFoMXuuxBaP2ft-62" value="" style="line;strokeWidth=1;fillColor=none;align=left;verticalAlign=middle;spacingTop=-1;spacingLeft=3;spacingRight=3;rotatable=0;labelPosition=right;points=[];portConstraint=eastwest;strokeColor=inherit;" parent="3Q9VjhLFoMXuuxBaP2ft-54" vertex="1">
          <mxGeometry y="208" width="230" height="8" as="geometry" />
        </mxCell>
        <mxCell id="3Q9VjhLFoMXuuxBaP2ft-63" value="Ciudad" style="swimlane;fontStyle=1;align=center;verticalAlign=top;childLayout=stackLayout;horizontal=1;startSize=26;horizontalStack=0;resizeParent=1;resizeParentMax=0;resizeLast=0;collapsible=1;marginBottom=0;whiteSpace=wrap;html=1;" parent="1" vertex="1">
          <mxGeometry x="585" y="790" width="230" height="212" as="geometry" />
        </mxCell>
        <mxCell id="3Q9VjhLFoMXuuxBaP2ft-64" value="- id: Long" style="text;strokeColor=none;fillColor=none;align=left;verticalAlign=top;spacingLeft=4;spacingRight=4;overflow=hidden;rotatable=0;points=[[0,0.5],[1,0.5]];portConstraint=eastwest;whiteSpace=wrap;html=1;" parent="3Q9VjhLFoMXuuxBaP2ft-63" vertex="1">
          <mxGeometry y="26" width="230" height="22" as="geometry" />
        </mxCell>
        <mxCell id="3Q9VjhLFoMXuuxBaP2ft-65" value="- nombre: String" style="text;strokeColor=none;fillColor=none;align=left;verticalAlign=top;spacingLeft=4;spacingRight=4;overflow=hidden;rotatable=0;points=[[0,0.5],[1,0.5]];portConstraint=eastwest;whiteSpace=wrap;html=1;" parent="3Q9VjhLFoMXuuxBaP2ft-63" vertex="1">
          <mxGeometry y="48" width="230" height="26" as="geometry" />
        </mxCell>
        <mxCell id="3Q9VjhLFoMXuuxBaP2ft-66" value="- estadoId: Estado" style="text;strokeColor=none;fillColor=none;align=left;verticalAlign=top;spacingLeft=4;spacingRight=4;overflow=hidden;rotatable=0;points=[[0,0.5],[1,0.5]];portConstraint=eastwest;whiteSpace=wrap;html=1;" parent="3Q9VjhLFoMXuuxBaP2ft-63" vertex="1">
          <mxGeometry y="74" width="230" height="26" as="geometry" />
        </mxCell>
        <mxCell id="3Q9VjhLFoMXuuxBaP2ft-67" value="- estado: Boolean" style="text;strokeColor=none;fillColor=none;align=left;verticalAlign=top;spacingLeft=4;spacingRight=4;overflow=hidden;rotatable=0;points=[[0,0.5],[1,0.5]];portConstraint=eastwest;whiteSpace=wrap;html=1;" parent="3Q9VjhLFoMXuuxBaP2ft-63" vertex="1">
          <mxGeometry y="100" width="230" height="26" as="geometry" />
        </mxCell>
        <mxCell id="3Q9VjhLFoMXuuxBaP2ft-68" value="- fechaCreacion: LocalDateTime" style="text;strokeColor=none;fillColor=none;align=left;verticalAlign=top;spacingLeft=4;spacingRight=4;overflow=hidden;rotatable=0;points=[[0,0.5],[1,0.5]];portConstraint=eastwest;whiteSpace=wrap;html=1;" parent="3Q9VjhLFoMXuuxBaP2ft-63" vertex="1">
          <mxGeometry y="126" width="230" height="26" as="geometry" />
        </mxCell>
        <mxCell id="3Q9VjhLFoMXuuxBaP2ft-69" value="- fechaModificacion: LocalDateTime" style="text;strokeColor=none;fillColor=none;align=left;verticalAlign=top;spacingLeft=4;spacingRight=4;overflow=hidden;rotatable=0;points=[[0,0.5],[1,0.5]];portConstraint=eastwest;whiteSpace=wrap;html=1;" parent="3Q9VjhLFoMXuuxBaP2ft-63" vertex="1">
          <mxGeometry y="152" width="230" height="26" as="geometry" />
        </mxCell>
        <mxCell id="3Q9VjhLFoMXuuxBaP2ft-70" value="- fechaEliminacion: LocalDateTime" style="text;strokeColor=none;fillColor=none;align=left;verticalAlign=top;spacingLeft=4;spacingRight=4;overflow=hidden;rotatable=0;points=[[0,0.5],[1,0.5]];portConstraint=eastwest;whiteSpace=wrap;html=1;" parent="3Q9VjhLFoMXuuxBaP2ft-63" vertex="1">
          <mxGeometry y="178" width="230" height="26" as="geometry" />
        </mxCell>
        <mxCell id="3Q9VjhLFoMXuuxBaP2ft-71" value="" style="line;strokeWidth=1;fillColor=none;align=left;verticalAlign=middle;spacingTop=-1;spacingLeft=3;spacingRight=3;rotatable=0;labelPosition=right;points=[];portConstraint=eastwest;strokeColor=inherit;" parent="3Q9VjhLFoMXuuxBaP2ft-63" vertex="1">
          <mxGeometry y="204" width="230" height="8" as="geometry" />
        </mxCell>
        <mxCell id="3Q9VjhLFoMXuuxBaP2ft-72" value="&lt;font style=&quot;font-size: 18px;&quot;&gt;CASO 1&lt;/font&gt;" style="rounded=0;whiteSpace=wrap;html=1;" parent="1" vertex="1">
          <mxGeometry x="290" y="850" width="240" height="130" as="geometry" />
        </mxCell>
        <mxCell id="3Q9VjhLFoMXuuxBaP2ft-74" value="" style="endArrow=none;html=1;edgeStyle=orthogonalEdgeStyle;rounded=0;entryX=-0.005;entryY=0.681;entryDx=0;entryDy=0;entryPerimeter=0;exitX=1.003;exitY=0.083;exitDx=0;exitDy=0;exitPerimeter=0;" parent="1" target="3Q9VjhLFoMXuuxBaP2ft-52" edge="1">
          <mxGeometry relative="1" as="geometry">
            <mxPoint x="255.68999999999983" y="575.77" as="sourcePoint" />
            <mxPoint x="445" y="637.05" as="targetPoint" />
          </mxGeometry>
        </mxCell>
        <mxCell id="3Q9VjhLFoMXuuxBaP2ft-75" value="parent" style="edgeLabel;resizable=0;html=1;align=left;verticalAlign=bottom;" parent="3Q9VjhLFoMXuuxBaP2ft-74" connectable="0" vertex="1">
          <mxGeometry x="-1" relative="1" as="geometry" />
        </mxCell>
        <mxCell id="3Q9VjhLFoMXuuxBaP2ft-76" value="child" style="edgeLabel;resizable=0;html=1;align=right;verticalAlign=bottom;" parent="3Q9VjhLFoMXuuxBaP2ft-74" connectable="0" vertex="1">
          <mxGeometry x="1" relative="1" as="geometry" />
        </mxCell>
        <mxCell id="3Q9VjhLFoMXuuxBaP2ft-77" value="" style="endArrow=none;html=1;edgeStyle=orthogonalEdgeStyle;rounded=0;entryX=-0.012;entryY=0.602;entryDx=0;entryDy=0;entryPerimeter=0;exitX=0.989;exitY=0.073;exitDx=0;exitDy=0;exitPerimeter=0;" parent="1" source="3Q9VjhLFoMXuuxBaP2ft-36" target="3Q9VjhLFoMXuuxBaP2ft-57" edge="1">
          <mxGeometry relative="1" as="geometry">
            <mxPoint x="555" y="600" as="sourcePoint" />
            <mxPoint x="583" y="680" as="targetPoint" />
          </mxGeometry>
        </mxCell>
        <mxCell id="3Q9VjhLFoMXuuxBaP2ft-78" value="parent" style="edgeLabel;resizable=0;html=1;align=left;verticalAlign=bottom;" parent="3Q9VjhLFoMXuuxBaP2ft-77" connectable="0" vertex="1">
          <mxGeometry x="-1" relative="1" as="geometry" />
        </mxCell>
        <mxCell id="3Q9VjhLFoMXuuxBaP2ft-79" value="child" style="edgeLabel;resizable=0;html=1;align=right;verticalAlign=bottom;" parent="3Q9VjhLFoMXuuxBaP2ft-77" connectable="0" vertex="1">
          <mxGeometry x="1" relative="1" as="geometry" />
        </mxCell>
        <mxCell id="3Q9VjhLFoMXuuxBaP2ft-80" value="" style="endArrow=none;html=1;edgeStyle=orthogonalEdgeStyle;rounded=0;entryX=-0.031;entryY=0.796;entryDx=0;entryDy=0;entryPerimeter=0;exitX=0;exitY=0.839;exitDx=0;exitDy=0;exitPerimeter=0;" parent="1" source="3Q9VjhLFoMXuuxBaP2ft-61" target="3Q9VjhLFoMXuuxBaP2ft-66" edge="1">
          <mxGeometry relative="1" as="geometry">
            <mxPoint x="562" y="586" as="sourcePoint" />
            <mxPoint x="592" y="664" as="targetPoint" />
            <Array as="points">
              <mxPoint x="565" y="764" />
              <mxPoint x="565" y="885" />
            </Array>
          </mxGeometry>
        </mxCell>
        <mxCell id="3Q9VjhLFoMXuuxBaP2ft-81" value="parent" style="edgeLabel;resizable=0;html=1;align=left;verticalAlign=bottom;" parent="3Q9VjhLFoMXuuxBaP2ft-80" connectable="0" vertex="1">
          <mxGeometry x="-1" relative="1" as="geometry" />
        </mxCell>
        <mxCell id="3Q9VjhLFoMXuuxBaP2ft-82" value="child" style="edgeLabel;resizable=0;html=1;align=right;verticalAlign=bottom;" parent="3Q9VjhLFoMXuuxBaP2ft-80" connectable="0" vertex="1">
          <mxGeometry x="1" relative="1" as="geometry" />
        </mxCell>
        <mxCell id="3Q9VjhLFoMXuuxBaP2ft-92" value="Continente" style="swimlane;fontStyle=1;align=center;verticalAlign=top;childLayout=stackLayout;horizontal=1;startSize=26;horizontalStack=0;resizeParent=1;resizeParentMax=0;resizeLast=0;collapsible=1;marginBottom=0;whiteSpace=wrap;html=1;" parent="1" vertex="1">
          <mxGeometry x="82" y="1171" width="230" height="86" as="geometry" />
        </mxCell>
        <mxCell id="3Q9VjhLFoMXuuxBaP2ft-93" value="- id: Long" style="text;strokeColor=none;fillColor=none;align=left;verticalAlign=top;spacingLeft=4;spacingRight=4;overflow=hidden;rotatable=0;points=[[0,0.5],[1,0.5]];portConstraint=eastwest;whiteSpace=wrap;html=1;" parent="3Q9VjhLFoMXuuxBaP2ft-92" vertex="1">
          <mxGeometry y="26" width="230" height="26" as="geometry" />
        </mxCell>
        <mxCell id="3Q9VjhLFoMXuuxBaP2ft-94" value="- nombre: String" style="text;strokeColor=none;fillColor=none;align=left;verticalAlign=top;spacingLeft=4;spacingRight=4;overflow=hidden;rotatable=0;points=[[0,0.5],[1,0.5]];portConstraint=eastwest;whiteSpace=wrap;html=1;" parent="3Q9VjhLFoMXuuxBaP2ft-92" vertex="1">
          <mxGeometry y="52" width="230" height="26" as="geometry" />
        </mxCell>
        <mxCell id="3Q9VjhLFoMXuuxBaP2ft-100" value="" style="line;strokeWidth=1;fillColor=none;align=left;verticalAlign=middle;spacingTop=-1;spacingLeft=3;spacingRight=3;rotatable=0;labelPosition=right;points=[];portConstraint=eastwest;strokeColor=inherit;" parent="3Q9VjhLFoMXuuxBaP2ft-92" vertex="1">
          <mxGeometry y="78" width="230" height="8" as="geometry" />
        </mxCell>
        <mxCell id="3Q9VjhLFoMXuuxBaP2ft-101" value="Ciudad" style="swimlane;fontStyle=1;align=center;verticalAlign=top;childLayout=stackLayout;horizontal=1;startSize=26;horizontalStack=0;resizeParent=1;resizeParentMax=0;resizeLast=0;collapsible=1;marginBottom=0;whiteSpace=wrap;html=1;" parent="1" vertex="1">
          <mxGeometry x="392" y="1411" width="230" height="112" as="geometry" />
        </mxCell>
        <mxCell id="3Q9VjhLFoMXuuxBaP2ft-102" value="- id: Long" style="text;strokeColor=none;fillColor=none;align=left;verticalAlign=top;spacingLeft=4;spacingRight=4;overflow=hidden;rotatable=0;points=[[0,0.5],[1,0.5]];portConstraint=eastwest;whiteSpace=wrap;html=1;" parent="3Q9VjhLFoMXuuxBaP2ft-101" vertex="1">
          <mxGeometry y="26" width="230" height="26" as="geometry" />
        </mxCell>
        <mxCell id="3Q9VjhLFoMXuuxBaP2ft-103" value="- nombre: String" style="text;strokeColor=none;fillColor=none;align=left;verticalAlign=top;spacingLeft=4;spacingRight=4;overflow=hidden;rotatable=0;points=[[0,0.5],[1,0.5]];portConstraint=eastwest;whiteSpace=wrap;html=1;" parent="3Q9VjhLFoMXuuxBaP2ft-101" vertex="1">
          <mxGeometry y="52" width="230" height="26" as="geometry" />
        </mxCell>
        <mxCell id="3Q9VjhLFoMXuuxBaP2ft-104" value="- estadoId: Estado" style="text;strokeColor=none;fillColor=none;align=left;verticalAlign=top;spacingLeft=4;spacingRight=4;overflow=hidden;rotatable=0;points=[[0,0.5],[1,0.5]];portConstraint=eastwest;whiteSpace=wrap;html=1;" parent="3Q9VjhLFoMXuuxBaP2ft-101" vertex="1">
          <mxGeometry y="78" width="230" height="26" as="geometry" />
        </mxCell>
        <mxCell id="3Q9VjhLFoMXuuxBaP2ft-105" value="" style="line;strokeWidth=1;fillColor=none;align=left;verticalAlign=middle;spacingTop=-1;spacingLeft=3;spacingRight=3;rotatable=0;labelPosition=right;points=[];portConstraint=eastwest;strokeColor=inherit;" parent="3Q9VjhLFoMXuuxBaP2ft-101" vertex="1">
          <mxGeometry y="104" width="230" height="8" as="geometry" />
        </mxCell>
        <mxCell id="3Q9VjhLFoMXuuxBaP2ft-106" value="Pais" style="swimlane;fontStyle=1;align=center;verticalAlign=top;childLayout=stackLayout;horizontal=1;startSize=26;horizontalStack=0;resizeParent=1;resizeParentMax=0;resizeLast=0;collapsible=1;marginBottom=0;whiteSpace=wrap;html=1;" parent="1" vertex="1">
          <mxGeometry x="82" y="1281" width="230" height="112" as="geometry" />
        </mxCell>
        <mxCell id="3Q9VjhLFoMXuuxBaP2ft-107" value="- id: Long" style="text;strokeColor=none;fillColor=none;align=left;verticalAlign=top;spacingLeft=4;spacingRight=4;overflow=hidden;rotatable=0;points=[[0,0.5],[1,0.5]];portConstraint=eastwest;whiteSpace=wrap;html=1;" parent="3Q9VjhLFoMXuuxBaP2ft-106" vertex="1">
          <mxGeometry y="26" width="230" height="26" as="geometry" />
        </mxCell>
        <mxCell id="3Q9VjhLFoMXuuxBaP2ft-108" value="- nombre: String" style="text;strokeColor=none;fillColor=none;align=left;verticalAlign=top;spacingLeft=4;spacingRight=4;overflow=hidden;rotatable=0;points=[[0,0.5],[1,0.5]];portConstraint=eastwest;whiteSpace=wrap;html=1;" parent="3Q9VjhLFoMXuuxBaP2ft-106" vertex="1">
          <mxGeometry y="52" width="230" height="26" as="geometry" />
        </mxCell>
        <mxCell id="3Q9VjhLFoMXuuxBaP2ft-109" value="- continente: Continente" style="text;strokeColor=none;fillColor=none;align=left;verticalAlign=top;spacingLeft=4;spacingRight=4;overflow=hidden;rotatable=0;points=[[0,0.5],[1,0.5]];portConstraint=eastwest;whiteSpace=wrap;html=1;" parent="3Q9VjhLFoMXuuxBaP2ft-106" vertex="1">
          <mxGeometry y="78" width="230" height="26" as="geometry" />
        </mxCell>
        <mxCell id="3Q9VjhLFoMXuuxBaP2ft-110" value="" style="line;strokeWidth=1;fillColor=none;align=left;verticalAlign=middle;spacingTop=-1;spacingLeft=3;spacingRight=3;rotatable=0;labelPosition=right;points=[];portConstraint=eastwest;strokeColor=inherit;" parent="3Q9VjhLFoMXuuxBaP2ft-106" vertex="1">
          <mxGeometry y="104" width="230" height="8" as="geometry" />
        </mxCell>
        <mxCell id="3Q9VjhLFoMXuuxBaP2ft-111" value="Estado" style="swimlane;fontStyle=1;align=center;verticalAlign=top;childLayout=stackLayout;horizontal=1;startSize=26;horizontalStack=0;resizeParent=1;resizeParentMax=0;resizeLast=0;collapsible=1;marginBottom=0;whiteSpace=wrap;html=1;" parent="1" vertex="1">
          <mxGeometry x="82" y="1411" width="230" height="112" as="geometry" />
        </mxCell>
        <mxCell id="3Q9VjhLFoMXuuxBaP2ft-112" value="- id: Long" style="text;strokeColor=none;fillColor=none;align=left;verticalAlign=top;spacingLeft=4;spacingRight=4;overflow=hidden;rotatable=0;points=[[0,0.5],[1,0.5]];portConstraint=eastwest;whiteSpace=wrap;html=1;" parent="3Q9VjhLFoMXuuxBaP2ft-111" vertex="1">
          <mxGeometry y="26" width="230" height="26" as="geometry" />
        </mxCell>
        <mxCell id="3Q9VjhLFoMXuuxBaP2ft-113" value="- nombre: String" style="text;strokeColor=none;fillColor=none;align=left;verticalAlign=top;spacingLeft=4;spacingRight=4;overflow=hidden;rotatable=0;points=[[0,0.5],[1,0.5]];portConstraint=eastwest;whiteSpace=wrap;html=1;" parent="3Q9VjhLFoMXuuxBaP2ft-111" vertex="1">
          <mxGeometry y="52" width="230" height="26" as="geometry" />
        </mxCell>
        <mxCell id="3Q9VjhLFoMXuuxBaP2ft-114" value="- pais: Pais" style="text;strokeColor=none;fillColor=none;align=left;verticalAlign=top;spacingLeft=4;spacingRight=4;overflow=hidden;rotatable=0;points=[[0,0.5],[1,0.5]];portConstraint=eastwest;whiteSpace=wrap;html=1;" parent="3Q9VjhLFoMXuuxBaP2ft-111" vertex="1">
          <mxGeometry y="78" width="230" height="26" as="geometry" />
        </mxCell>
        <mxCell id="3Q9VjhLFoMXuuxBaP2ft-115" value="" style="line;strokeWidth=1;fillColor=none;align=left;verticalAlign=middle;spacingTop=-1;spacingLeft=3;spacingRight=3;rotatable=0;labelPosition=right;points=[];portConstraint=eastwest;strokeColor=inherit;" parent="3Q9VjhLFoMXuuxBaP2ft-111" vertex="1">
          <mxGeometry y="104" width="230" height="8" as="geometry" />
        </mxCell>
        <mxCell id="3Q9VjhLFoMXuuxBaP2ft-122" value="" style="endArrow=none;html=1;edgeStyle=orthogonalEdgeStyle;rounded=0;exitX=-0.019;exitY=0.139;exitDx=0;exitDy=0;exitPerimeter=0;entryX=-0.005;entryY=0.125;entryDx=0;entryDy=0;entryPerimeter=0;" parent="1" source="3Q9VjhLFoMXuuxBaP2ft-92" target="3Q9VjhLFoMXuuxBaP2ft-106" edge="1">
          <mxGeometry relative="1" as="geometry">
            <mxPoint x="182" y="1301" as="sourcePoint" />
            <mxPoint x="342" y="1301" as="targetPoint" />
            <Array as="points">
              <mxPoint x="62" y="1183" />
              <mxPoint x="62" y="1291" />
              <mxPoint x="81" y="1291" />
            </Array>
          </mxGeometry>
        </mxCell>
        <mxCell id="3Q9VjhLFoMXuuxBaP2ft-123" value="parent" style="edgeLabel;resizable=0;html=1;align=left;verticalAlign=bottom;" parent="3Q9VjhLFoMXuuxBaP2ft-122" connectable="0" vertex="1">
          <mxGeometry x="-1" relative="1" as="geometry" />
        </mxCell>
        <mxCell id="3Q9VjhLFoMXuuxBaP2ft-124" value="child" style="edgeLabel;resizable=0;html=1;align=right;verticalAlign=bottom;" parent="3Q9VjhLFoMXuuxBaP2ft-122" connectable="0" vertex="1">
          <mxGeometry x="1" relative="1" as="geometry" />
        </mxCell>
        <mxCell id="3Q9VjhLFoMXuuxBaP2ft-125" value="" style="endArrow=none;html=1;edgeStyle=orthogonalEdgeStyle;rounded=0;entryX=1;entryY=0.151;entryDx=0;entryDy=0;entryPerimeter=0;exitX=1.019;exitY=0.106;exitDx=0;exitDy=0;exitPerimeter=0;" parent="1" source="3Q9VjhLFoMXuuxBaP2ft-106" target="3Q9VjhLFoMXuuxBaP2ft-111" edge="1">
          <mxGeometry relative="1" as="geometry">
            <mxPoint x="182" y="1301" as="sourcePoint" />
            <mxPoint x="342" y="1301" as="targetPoint" />
            <Array as="points">
              <mxPoint x="332" y="1293" />
              <mxPoint x="332" y="1428" />
            </Array>
          </mxGeometry>
        </mxCell>
        <mxCell id="3Q9VjhLFoMXuuxBaP2ft-126" value="parent" style="edgeLabel;resizable=0;html=1;align=left;verticalAlign=bottom;" parent="3Q9VjhLFoMXuuxBaP2ft-125" connectable="0" vertex="1">
          <mxGeometry x="-1" relative="1" as="geometry" />
        </mxCell>
        <mxCell id="3Q9VjhLFoMXuuxBaP2ft-127" value="child" style="edgeLabel;resizable=0;html=1;align=right;verticalAlign=bottom;" parent="3Q9VjhLFoMXuuxBaP2ft-125" connectable="0" vertex="1">
          <mxGeometry x="1" relative="1" as="geometry" />
        </mxCell>
        <mxCell id="3Q9VjhLFoMXuuxBaP2ft-128" value="" style="endArrow=none;html=1;edgeStyle=orthogonalEdgeStyle;rounded=0;entryX=0.007;entryY=0.133;entryDx=0;entryDy=0;entryPerimeter=0;exitX=1;exitY=0.5;exitDx=0;exitDy=0;" parent="1" source="3Q9VjhLFoMXuuxBaP2ft-114" target="3Q9VjhLFoMXuuxBaP2ft-101" edge="1">
          <mxGeometry relative="1" as="geometry">
            <mxPoint x="312" y="1561" as="sourcePoint" />
            <mxPoint x="252" y="1411" as="targetPoint" />
          </mxGeometry>
        </mxCell>
        <mxCell id="3Q9VjhLFoMXuuxBaP2ft-129" value="parent" style="edgeLabel;resizable=0;html=1;align=left;verticalAlign=bottom;" parent="3Q9VjhLFoMXuuxBaP2ft-128" connectable="0" vertex="1">
          <mxGeometry x="-1" relative="1" as="geometry" />
        </mxCell>
        <mxCell id="3Q9VjhLFoMXuuxBaP2ft-130" value="child" style="edgeLabel;resizable=0;html=1;align=right;verticalAlign=bottom;" parent="3Q9VjhLFoMXuuxBaP2ft-128" connectable="0" vertex="1">
          <mxGeometry x="1" relative="1" as="geometry" />
        </mxCell>
        <mxCell id="3Q9VjhLFoMXuuxBaP2ft-131" value="Extends" style="endArrow=block;endSize=16;endFill=0;html=1;rounded=0;exitX=1;exitY=0.5;exitDx=0;exitDy=0;entryX=0;entryY=0.5;entryDx=0;entryDy=0;" parent="1" source="3Q9VjhLFoMXuuxBaP2ft-94" target="3Q9VjhLFoMXuuxBaP2ft-9" edge="1">
          <mxGeometry width="160" relative="1" as="geometry">
            <mxPoint x="242" y="1341" as="sourcePoint" />
            <mxPoint x="402" y="1341" as="targetPoint" />
          </mxGeometry>
        </mxCell>
        <mxCell id="3Q9VjhLFoMXuuxBaP2ft-132" value="Extends" style="endArrow=block;endSize=16;endFill=0;html=1;rounded=0;exitX=0.998;exitY=1.038;exitDx=0;exitDy=0;exitPerimeter=0;entryX=-0.013;entryY=0.926;entryDx=0;entryDy=0;entryPerimeter=0;" parent="1" source="3Q9VjhLFoMXuuxBaP2ft-109" target="3Q9VjhLFoMXuuxBaP2ft-12" edge="1">
          <mxGeometry width="160" relative="1" as="geometry">
            <mxPoint x="242" y="1341" as="sourcePoint" />
            <mxPoint x="402" y="1341" as="targetPoint" />
          </mxGeometry>
        </mxCell>
        <mxCell id="3Q9VjhLFoMXuuxBaP2ft-133" value="Extends" style="endArrow=block;endSize=16;endFill=0;html=1;rounded=0;entryX=0.125;entryY=0.913;entryDx=0;entryDy=0;entryPerimeter=0;" parent="1" source="3Q9VjhLFoMXuuxBaP2ft-101" target="3Q9VjhLFoMXuuxBaP2ft-13" edge="1">
          <mxGeometry width="160" relative="1" as="geometry">
            <mxPoint x="242" y="1341" as="sourcePoint" />
            <mxPoint x="402" y="1341" as="targetPoint" />
          </mxGeometry>
        </mxCell>
        <mxCell id="3Q9VjhLFoMXuuxBaP2ft-134" value="Extends" style="endArrow=block;endSize=16;endFill=0;html=1;rounded=0;exitX=1;exitY=0.5;exitDx=0;exitDy=0;entryX=0.054;entryY=1.298;entryDx=0;entryDy=0;entryPerimeter=0;" parent="1" source="3Q9VjhLFoMXuuxBaP2ft-113" target="3Q9VjhLFoMXuuxBaP2ft-13" edge="1">
          <mxGeometry width="160" relative="1" as="geometry">
            <mxPoint x="242" y="1341" as="sourcePoint" />
            <mxPoint x="402" y="1341" as="targetPoint" />
          </mxGeometry>
        </mxCell>
        <mxCell id="3Q9VjhLFoMXuuxBaP2ft-136" value="&lt;font style=&quot;font-size: 18px;&quot;&gt;CASO 2&lt;/font&gt;" style="rounded=0;whiteSpace=wrap;html=1;" parent="1" vertex="1">
          <mxGeometry x="332" y="1141" width="160" height="30" as="geometry" />
        </mxCell>
        <mxCell id="3Q9VjhLFoMXuuxBaP2ft-137" value="&lt;font style=&quot;font-size: 18px;&quot;&gt;CASO 3&lt;/font&gt;" style="rounded=0;whiteSpace=wrap;html=1;" parent="1" vertex="1">
          <mxGeometry x="287" y="1590" width="160" height="30" as="geometry" />
        </mxCell>
        <mxCell id="3Q9VjhLFoMXuuxBaP2ft-138" value="Auditoria" style="swimlane;fontStyle=1;align=center;verticalAlign=top;childLayout=stackLayout;horizontal=1;startSize=26;horizontalStack=0;resizeParent=1;resizeParentMax=0;resizeLast=0;collapsible=1;marginBottom=0;whiteSpace=wrap;html=1;" parent="1" vertex="1">
          <mxGeometry x="527" y="1600" width="240" height="138" as="geometry" />
        </mxCell>
        <mxCell id="3Q9VjhLFoMXuuxBaP2ft-139" value="- estado: Boolean" style="text;strokeColor=none;fillColor=none;align=left;verticalAlign=top;spacingLeft=4;spacingRight=4;overflow=hidden;rotatable=0;points=[[0,0.5],[1,0.5]];portConstraint=eastwest;whiteSpace=wrap;html=1;" parent="3Q9VjhLFoMXuuxBaP2ft-138" vertex="1">
          <mxGeometry y="26" width="240" height="26" as="geometry" />
        </mxCell>
        <mxCell id="3Q9VjhLFoMXuuxBaP2ft-140" value="- fechaCreacion: LocalDateTime" style="text;strokeColor=none;fillColor=none;align=left;verticalAlign=top;spacingLeft=4;spacingRight=4;overflow=hidden;rotatable=0;points=[[0,0.5],[1,0.5]];portConstraint=eastwest;whiteSpace=wrap;html=1;" parent="3Q9VjhLFoMXuuxBaP2ft-138" vertex="1">
          <mxGeometry y="52" width="240" height="26" as="geometry" />
        </mxCell>
        <mxCell id="3Q9VjhLFoMXuuxBaP2ft-141" value="- fechaModificacion: LocalDateTime" style="text;strokeColor=none;fillColor=none;align=left;verticalAlign=top;spacingLeft=4;spacingRight=4;overflow=hidden;rotatable=0;points=[[0,0.5],[1,0.5]];portConstraint=eastwest;whiteSpace=wrap;html=1;" parent="3Q9VjhLFoMXuuxBaP2ft-138" vertex="1">
          <mxGeometry y="78" width="240" height="26" as="geometry" />
        </mxCell>
        <mxCell id="3Q9VjhLFoMXuuxBaP2ft-142" value="- fechaEliminacion: LocalDateTime" style="text;strokeColor=none;fillColor=none;align=left;verticalAlign=top;spacingLeft=4;spacingRight=4;overflow=hidden;rotatable=0;points=[[0,0.5],[1,0.5]];portConstraint=eastwest;whiteSpace=wrap;html=1;" parent="3Q9VjhLFoMXuuxBaP2ft-138" vertex="1">
          <mxGeometry y="104" width="240" height="26" as="geometry" />
        </mxCell>
        <mxCell id="3Q9VjhLFoMXuuxBaP2ft-143" value="" style="line;strokeWidth=1;fillColor=none;align=left;verticalAlign=middle;spacingTop=-1;spacingLeft=3;spacingRight=3;rotatable=0;labelPosition=right;points=[];portConstraint=eastwest;strokeColor=inherit;" parent="3Q9VjhLFoMXuuxBaP2ft-138" vertex="1">
          <mxGeometry y="130" width="240" height="8" as="geometry" />
        </mxCell>
        <mxCell id="3Q9VjhLFoMXuuxBaP2ft-144" value="Generica" style="swimlane;fontStyle=1;align=center;verticalAlign=top;childLayout=stackLayout;horizontal=1;startSize=26;horizontalStack=0;resizeParent=1;resizeParentMax=0;resizeLast=0;collapsible=1;marginBottom=0;whiteSpace=wrap;html=1;" parent="1" vertex="1">
          <mxGeometry x="247" y="1636" width="230" height="86" as="geometry" />
        </mxCell>
        <mxCell id="3Q9VjhLFoMXuuxBaP2ft-145" value="- id: Long" style="text;strokeColor=none;fillColor=none;align=left;verticalAlign=top;spacingLeft=4;spacingRight=4;overflow=hidden;rotatable=0;points=[[0,0.5],[1,0.5]];portConstraint=eastwest;whiteSpace=wrap;html=1;" parent="3Q9VjhLFoMXuuxBaP2ft-144" vertex="1">
          <mxGeometry y="26" width="230" height="26" as="geometry" />
        </mxCell>
        <mxCell id="3Q9VjhLFoMXuuxBaP2ft-146" value="- nombre: String" style="text;strokeColor=none;fillColor=none;align=left;verticalAlign=top;spacingLeft=4;spacingRight=4;overflow=hidden;rotatable=0;points=[[0,0.5],[1,0.5]];portConstraint=eastwest;whiteSpace=wrap;html=1;" parent="3Q9VjhLFoMXuuxBaP2ft-144" vertex="1">
          <mxGeometry y="52" width="230" height="26" as="geometry" />
        </mxCell>
        <mxCell id="3Q9VjhLFoMXuuxBaP2ft-147" value="" style="line;strokeWidth=1;fillColor=none;align=left;verticalAlign=middle;spacingTop=-1;spacingLeft=3;spacingRight=3;rotatable=0;labelPosition=right;points=[];portConstraint=eastwest;strokeColor=inherit;" parent="3Q9VjhLFoMXuuxBaP2ft-144" vertex="1">
          <mxGeometry y="78" width="230" height="8" as="geometry" />
        </mxCell>
        <mxCell id="3Q9VjhLFoMXuuxBaP2ft-148" value="Extends" style="endArrow=block;endSize=16;endFill=0;html=1;rounded=0;entryX=-0.02;entryY=0.504;entryDx=0;entryDy=0;entryPerimeter=0;exitX=1;exitY=0.5;exitDx=0;exitDy=0;" parent="1" source="3Q9VjhLFoMXuuxBaP2ft-146" edge="1">
          <mxGeometry width="160" relative="1" as="geometry">
            <mxPoint x="297" y="1600" as="sourcePoint" />
            <mxPoint x="522.2" y="1675.104" as="targetPoint" />
          </mxGeometry>
        </mxCell>
        <mxCell id="3Q9VjhLFoMXuuxBaP2ft-149" value="Pais" style="swimlane;fontStyle=1;align=center;verticalAlign=top;childLayout=stackLayout;horizontal=1;startSize=26;horizontalStack=0;resizeParent=1;resizeParentMax=0;resizeLast=0;collapsible=1;marginBottom=0;whiteSpace=wrap;html=1;" parent="1" vertex="1">
          <mxGeometry x="107" y="1810" width="150" height="60" as="geometry" />
        </mxCell>
        <mxCell id="3Q9VjhLFoMXuuxBaP2ft-151" value="- continenteId: Continente" style="text;strokeColor=none;fillColor=none;align=left;verticalAlign=top;spacingLeft=4;spacingRight=4;overflow=hidden;rotatable=0;points=[[0,0.5],[1,0.5]];portConstraint=eastwest;whiteSpace=wrap;html=1;" parent="3Q9VjhLFoMXuuxBaP2ft-149" vertex="1">
          <mxGeometry y="26" width="150" height="26" as="geometry" />
        </mxCell>
        <mxCell id="3Q9VjhLFoMXuuxBaP2ft-152" value="" style="line;strokeWidth=1;fillColor=none;align=left;verticalAlign=middle;spacingTop=-1;spacingLeft=3;spacingRight=3;rotatable=0;labelPosition=right;points=[];portConstraint=eastwest;strokeColor=inherit;" parent="3Q9VjhLFoMXuuxBaP2ft-149" vertex="1">
          <mxGeometry y="52" width="150" height="8" as="geometry" />
        </mxCell>
        <mxCell id="3Q9VjhLFoMXuuxBaP2ft-153" value="Estado" style="swimlane;fontStyle=1;align=center;verticalAlign=top;childLayout=stackLayout;horizontal=1;startSize=26;horizontalStack=0;resizeParent=1;resizeParentMax=0;resizeLast=0;collapsible=1;marginBottom=0;whiteSpace=wrap;html=1;" parent="1" vertex="1">
          <mxGeometry x="297" y="1810" width="150" height="60" as="geometry" />
        </mxCell>
        <mxCell id="3Q9VjhLFoMXuuxBaP2ft-154" value="- paisId: Pais" style="text;strokeColor=none;fillColor=none;align=left;verticalAlign=top;spacingLeft=4;spacingRight=4;overflow=hidden;rotatable=0;points=[[0,0.5],[1,0.5]];portConstraint=eastwest;whiteSpace=wrap;html=1;" parent="3Q9VjhLFoMXuuxBaP2ft-153" vertex="1">
          <mxGeometry y="26" width="150" height="26" as="geometry" />
        </mxCell>
        <mxCell id="3Q9VjhLFoMXuuxBaP2ft-155" value="" style="line;strokeWidth=1;fillColor=none;align=left;verticalAlign=middle;spacingTop=-1;spacingLeft=3;spacingRight=3;rotatable=0;labelPosition=right;points=[];portConstraint=eastwest;strokeColor=inherit;" parent="3Q9VjhLFoMXuuxBaP2ft-153" vertex="1">
          <mxGeometry y="52" width="150" height="8" as="geometry" />
        </mxCell>
        <mxCell id="3Q9VjhLFoMXuuxBaP2ft-156" value="Ciudad" style="swimlane;fontStyle=1;align=center;verticalAlign=top;childLayout=stackLayout;horizontal=1;startSize=26;horizontalStack=0;resizeParent=1;resizeParentMax=0;resizeLast=0;collapsible=1;marginBottom=0;whiteSpace=wrap;html=1;" parent="1" vertex="1">
          <mxGeometry x="477" y="1810" width="150" height="60" as="geometry" />
        </mxCell>
        <mxCell id="3Q9VjhLFoMXuuxBaP2ft-157" value="- estadoId: Estado" style="text;strokeColor=none;fillColor=none;align=left;verticalAlign=top;spacingLeft=4;spacingRight=4;overflow=hidden;rotatable=0;points=[[0,0.5],[1,0.5]];portConstraint=eastwest;whiteSpace=wrap;html=1;" parent="3Q9VjhLFoMXuuxBaP2ft-156" vertex="1">
          <mxGeometry y="26" width="150" height="26" as="geometry" />
        </mxCell>
        <mxCell id="3Q9VjhLFoMXuuxBaP2ft-158" value="" style="line;strokeWidth=1;fillColor=none;align=left;verticalAlign=middle;spacingTop=-1;spacingLeft=3;spacingRight=3;rotatable=0;labelPosition=right;points=[];portConstraint=eastwest;strokeColor=inherit;" parent="3Q9VjhLFoMXuuxBaP2ft-156" vertex="1">
          <mxGeometry y="52" width="150" height="8" as="geometry" />
        </mxCell>
        <mxCell id="3Q9VjhLFoMXuuxBaP2ft-159" value="" style="endArrow=none;html=1;edgeStyle=orthogonalEdgeStyle;rounded=0;exitX=1.015;exitY=0.354;exitDx=0;exitDy=0;exitPerimeter=0;entryX=0;entryY=0.5;entryDx=0;entryDy=0;" parent="1" source="3Q9VjhLFoMXuuxBaP2ft-149" target="3Q9VjhLFoMXuuxBaP2ft-154" edge="1">
          <mxGeometry relative="1" as="geometry">
            <mxPoint x="257" y="1740" as="sourcePoint" />
            <mxPoint x="417" y="1740" as="targetPoint" />
          </mxGeometry>
        </mxCell>
        <mxCell id="3Q9VjhLFoMXuuxBaP2ft-160" value="parent" style="edgeLabel;resizable=0;html=1;align=left;verticalAlign=bottom;" parent="3Q9VjhLFoMXuuxBaP2ft-159" connectable="0" vertex="1">
          <mxGeometry x="-1" relative="1" as="geometry" />
        </mxCell>
        <mxCell id="3Q9VjhLFoMXuuxBaP2ft-161" value="child" style="edgeLabel;resizable=0;html=1;align=right;verticalAlign=bottom;" parent="3Q9VjhLFoMXuuxBaP2ft-159" connectable="0" vertex="1">
          <mxGeometry x="1" relative="1" as="geometry" />
        </mxCell>
        <mxCell id="3Q9VjhLFoMXuuxBaP2ft-162" value="" style="endArrow=none;html=1;edgeStyle=orthogonalEdgeStyle;rounded=0;exitX=1;exitY=0.25;exitDx=0;exitDy=0;entryX=0.02;entryY=0.785;entryDx=0;entryDy=0;entryPerimeter=0;" parent="1" source="3Q9VjhLFoMXuuxBaP2ft-153" target="3Q9VjhLFoMXuuxBaP2ft-157" edge="1">
          <mxGeometry relative="1" as="geometry">
            <mxPoint x="257" y="1740" as="sourcePoint" />
            <mxPoint x="417" y="1740" as="targetPoint" />
          </mxGeometry>
        </mxCell>
        <mxCell id="3Q9VjhLFoMXuuxBaP2ft-163" value="parent" style="edgeLabel;resizable=0;html=1;align=left;verticalAlign=bottom;" parent="3Q9VjhLFoMXuuxBaP2ft-162" connectable="0" vertex="1">
          <mxGeometry x="-1" relative="1" as="geometry" />
        </mxCell>
        <mxCell id="3Q9VjhLFoMXuuxBaP2ft-164" value="child" style="edgeLabel;resizable=0;html=1;align=right;verticalAlign=bottom;" parent="3Q9VjhLFoMXuuxBaP2ft-162" connectable="0" vertex="1">
          <mxGeometry x="1" relative="1" as="geometry" />
        </mxCell>
        <mxCell id="3Q9VjhLFoMXuuxBaP2ft-165" value="Extends" style="endArrow=block;endSize=16;endFill=0;html=1;rounded=0;exitX=0.546;exitY=-0.041;exitDx=0;exitDy=0;exitPerimeter=0;entryX=0.124;entryY=0.764;entryDx=0;entryDy=0;entryPerimeter=0;" parent="1" source="3Q9VjhLFoMXuuxBaP2ft-149" target="3Q9VjhLFoMXuuxBaP2ft-147" edge="1">
          <mxGeometry width="160" relative="1" as="geometry">
            <mxPoint x="257" y="1740" as="sourcePoint" />
            <mxPoint x="417" y="1740" as="targetPoint" />
          </mxGeometry>
        </mxCell>
        <mxCell id="3Q9VjhLFoMXuuxBaP2ft-166" value="Extends" style="endArrow=block;endSize=16;endFill=0;html=1;rounded=0;exitX=0.454;exitY=-0.029;exitDx=0;exitDy=0;exitPerimeter=0;entryX=0.472;entryY=0.764;entryDx=0;entryDy=0;entryPerimeter=0;" parent="1" source="3Q9VjhLFoMXuuxBaP2ft-153" target="3Q9VjhLFoMXuuxBaP2ft-147" edge="1">
          <mxGeometry width="160" relative="1" as="geometry">
            <mxPoint x="257" y="1740" as="sourcePoint" />
            <mxPoint x="417" y="1740" as="targetPoint" />
          </mxGeometry>
        </mxCell>
        <mxCell id="3Q9VjhLFoMXuuxBaP2ft-167" value="Extends" style="endArrow=block;endSize=16;endFill=0;html=1;rounded=0;exitX=0.202;exitY=-0.004;exitDx=0;exitDy=0;exitPerimeter=0;entryX=0.75;entryY=1;entryDx=0;entryDy=0;" parent="1" source="3Q9VjhLFoMXuuxBaP2ft-156" target="3Q9VjhLFoMXuuxBaP2ft-144" edge="1">
          <mxGeometry width="160" relative="1" as="geometry">
            <mxPoint x="257" y="1740" as="sourcePoint" />
            <mxPoint x="417" y="1740" as="targetPoint" />
          </mxGeometry>
        </mxCell>
        <mxCell id="3Q9VjhLFoMXuuxBaP2ft-169" value="Continente" style="swimlane;fontStyle=1;align=center;verticalAlign=top;childLayout=stackLayout;horizontal=1;startSize=26;horizontalStack=0;resizeParent=1;resizeParentMax=0;resizeLast=0;collapsible=1;marginBottom=0;whiteSpace=wrap;html=1;" parent="1" vertex="1">
          <mxGeometry x="32" y="1710" width="150" height="34" as="geometry" />
        </mxCell>
        <mxCell id="3Q9VjhLFoMXuuxBaP2ft-171" value="" style="line;strokeWidth=1;fillColor=none;align=left;verticalAlign=middle;spacingTop=-1;spacingLeft=3;spacingRight=3;rotatable=0;labelPosition=right;points=[];portConstraint=eastwest;strokeColor=inherit;" parent="3Q9VjhLFoMXuuxBaP2ft-169" vertex="1">
          <mxGeometry y="26" width="150" height="8" as="geometry" />
        </mxCell>
        <mxCell id="3Q9VjhLFoMXuuxBaP2ft-176" value="Extends" style="endArrow=block;endSize=16;endFill=0;html=1;rounded=0;entryX=0;entryY=0.5;entryDx=0;entryDy=0;exitX=0.905;exitY=0.122;exitDx=0;exitDy=0;exitPerimeter=0;" parent="1" target="3Q9VjhLFoMXuuxBaP2ft-145" edge="1">
          <mxGeometry width="160" relative="1" as="geometry">
            <mxPoint x="182.75" y="1718.1480000000001" as="sourcePoint" />
            <mxPoint x="357" y="1744.64" as="targetPoint" />
          </mxGeometry>
        </mxCell>
        <mxCell id="3Q9VjhLFoMXuuxBaP2ft-177" value="" style="endArrow=none;html=1;edgeStyle=orthogonalEdgeStyle;rounded=0;exitX=1;exitY=1;exitDx=0;exitDy=0;entryX=0.343;entryY=-0.019;entryDx=0;entryDy=0;entryPerimeter=0;" parent="1" target="3Q9VjhLFoMXuuxBaP2ft-149" edge="1">
          <mxGeometry relative="1" as="geometry">
            <mxPoint x="196.9999999999991" y="1748" as="sourcePoint" />
            <mxPoint x="527" y="1730" as="targetPoint" />
          </mxGeometry>
        </mxCell>
        <mxCell id="3Q9VjhLFoMXuuxBaP2ft-178" value="parent" style="edgeLabel;resizable=0;html=1;align=left;verticalAlign=bottom;" parent="3Q9VjhLFoMXuuxBaP2ft-177" connectable="0" vertex="1">
          <mxGeometry x="-1" relative="1" as="geometry" />
        </mxCell>
        <mxCell id="3Q9VjhLFoMXuuxBaP2ft-179" value="child" style="edgeLabel;resizable=0;html=1;align=right;verticalAlign=bottom;" parent="3Q9VjhLFoMXuuxBaP2ft-177" connectable="0" vertex="1">
          <mxGeometry x="1" relative="1" as="geometry" />
        </mxCell>
        <mxCell id="8uh8-FXMbZH1FxqKpkWT-3" value="&lt;div&gt;&lt;b&gt;&lt;font style=&quot;font-size: 14px;&quot;&gt;Reto: Modelación de Entidades Geográficas con Auditoría&lt;/font&gt;&lt;/b&gt;&lt;/div&gt;&lt;div&gt;&lt;br&gt;&lt;/div&gt;&lt;div&gt;En este reto, se te presenta la tarea de diseñar la estructura de datos para un sistema que gestiona información geográfica, incluyendo continentes, países, estados y ciudades. Además, se requiere incorporar atributos de auditoría para realizar un seguimiento de la creación, modificación y eliminación de estas entidades.&lt;/div&gt;&lt;div&gt;&lt;br&gt;&lt;/div&gt;&lt;div&gt;&lt;div&gt;&lt;ul&gt;&lt;li&gt;Continente:&amp;nbsp;&lt;span style=&quot;background-color: initial;&quot;&gt;Atributos: ID (Identificador Único), Nombre, Fecha de Creación, Fecha de Modificación, Fecha de Eliminación.&lt;/span&gt;&lt;/li&gt;&lt;li&gt;País:&amp;nbsp;&lt;span style=&quot;background-color: initial;&quot;&gt;Atributos: ID (Identificador Único), Nombre, Continente al que pertenece, Fecha de Creación, Fecha de Modificación, Fecha de Eliminación.&lt;/span&gt;&lt;/li&gt;&lt;li&gt;Estado:&amp;nbsp;&lt;span style=&quot;background-color: initial;&quot;&gt;Atributos: ID (Identificador Único), Nombre, País al que pertenece, Fecha de Creación, Fecha de Modificación, Fecha de Eliminación.&lt;/span&gt;&lt;/li&gt;&lt;li&gt;Ciudad:&lt;span style=&quot;background-color: initial;&quot;&gt;Atributos: ID (Identificador Único), Nombre, Estado al que pertenece, Fecha de Creación, Fecha de Modificación, Fecha de Eliminación.&lt;/span&gt;&lt;/li&gt;&lt;/ul&gt;&lt;/div&gt;&lt;/div&gt;&lt;div&gt;&lt;br&gt;&lt;/div&gt;&lt;div&gt;&lt;div&gt;Notas Adicionales:&lt;/div&gt;&lt;div&gt;&lt;br&gt;&lt;/div&gt;&lt;div&gt;&lt;ul&gt;&lt;li&gt;Cada entidad (continente, país, estado y ciudad) debe contar con un identificador único (ID) para facilitar su gestión.&lt;/li&gt;&lt;li&gt;Los atributos de auditoría (Fecha de Creación, Fecha de Modificación, Fecha de Eliminación) son esenciales para rastrear la historia de las entidades.&lt;/li&gt;&lt;li&gt;El atributo &quot;Fecha de Eliminación&quot; puede usarse para marcar una entidad como eliminada sin borrarla físicamente de la base de datos, lo que permite mantener un historial de datos.&lt;/li&gt;&lt;/ul&gt;&lt;/div&gt;&lt;div&gt;&lt;br&gt;&lt;/div&gt;&lt;div&gt;Tu tarea es definir la estructura de estas entidades y sus relaciones, así como asegurarte de que los atributos de auditoría se actualicen correctamente en cada operación de creación, modificación o eliminación de una entidad. Esta estructura servirá como base para la gestión de información geográfica en el sistema, con un énfasis en el seguimiento de cambios a lo largo del tiempo.&lt;/div&gt;&lt;/div&gt;" style="text;html=1;strokeColor=none;fillColor=none;align=left;verticalAlign=middle;whiteSpace=wrap;rounded=0;" vertex="1" parent="1">
          <mxGeometry x="25" y="50" width="790" height="450" as="geometry" />
        </mxCell>
        <mxCell id="8uh8-FXMbZH1FxqKpkWT-4" value="Reflexionar: _____________________________________________________________________________________________________&lt;br&gt;&lt;br&gt;_______________________________________________________________________________________________________________&lt;br&gt;&lt;br&gt;_______________________________________________________________________________________________________________&lt;br&gt;&lt;br&gt;_______________________________________________________________________________________________________________&lt;br&gt;&lt;br&gt;_______________________________________________________________________________________________________________&lt;br&gt;&lt;br&gt;_______________________________________________________________________________________________________________&lt;br&gt;&lt;br&gt;_______________________________________________________________________________________________________________" style="rounded=0;whiteSpace=wrap;html=1;fillColor=#B1E6D6;gradientColor=#67AB9F;strokeColor=#996185;" vertex="1" parent="1">
          <mxGeometry x="20" y="1930" width="820" height="250" as="geometry" />
        </mxCell>
      </root>
    </mxGraphModel>
  </diagram>
</mxfile>
